HIERARCHY
ROOT hip
{
  OFFSET 0 0 0
  CHANNELS 6 Xposition Yposition Zposition Zrotation Yrotation Xrotation
  JOINT abdomen
  {
    OFFSET 0 20.6881 -0.73152
    CHANNELS 3 Zrotation Xrotation Yrotation
    JOINT chest
    {
      OFFSET 0 11.7043 -0.48768
      CHANNELS 3 Zrotation Xrotation Yrotation
      JOINT neck
      {
        OFFSET 0 22.1894 -2.19456
        CHANNELS 3 Zrotation Xrotation Yrotation
        JOINT head
        {
          OFFSET -0.24384 7.07133 1.2192
          CHANNELS 3 Zrotation Xrotation Yrotation
          JOINT leftEye
          {
            OFFSET 4.14528 8.04674 8.04672
            CHANNELS 3 Zrotation Xrotation Yrotation
            End Site
            {
              OFFSET 1 0 0
            }
          }
          JOINT rightEye
          {
            OFFSET -3.6576 8.04674 8.04672
            CHANNELS 3 Zrotation Xrotation Yrotation
            End Site
            {
              OFFSET 1 0 0
            }
          }
        }
      }
      JOINT rCollar
      {
        OFFSET -2.68224 19.2634 -4.8768
        CHANNELS 3 Zrotation Xrotation Yrotation
        JOINT rShldr
        {
          OFFSET -8.77824 -1.95073 1.46304
          CHANNELS 3 Zrotation Xrotation Yrotation
          JOINT rForeArm
          {
            OFFSET -28.1742 -1.7115 0.48768
            CHANNELS 3 Zrotation Xrotation Yrotation
            JOINT rHand
            {
              OFFSET -22.5879 0.773209 7.07136
              CHANNELS 3 Zrotation Xrotation Yrotation
              JOINT rThumb1
              {
                OFFSET -1.2192 -0.487915 3.41376
                CHANNELS 3 Zrotation Xrotation Yrotation
                JOINT rThumb2
                {
                  OFFSET -3.37035 -0.52449 3.41376
                  CHANNELS 3 Zrotation Xrotation Yrotation
                  End Site
                  {
                    OFFSET -1.78271 -1.18214 1.43049
                  }
                }
              }
              JOINT rIndex1
              {
                OFFSET -7.75947 0.938293 5.60832
                CHANNELS 3 Zrotation Xrotation Yrotation
                JOINT rIndex2
                {
                  OFFSET -2.54057 -0.884171 1.56538
                  CHANNELS 3 Zrotation Xrotation Yrotation
                  End Site
                  {
                    OFFSET -1.62519 -0.234802 1.16502
                  }
                }
              }
              JOINT rMid1
              {
                OFFSET -8.24714 1.18213 3.41376
                CHANNELS 3 Zrotation Xrotation Yrotation
                JOINT rMid2
                {
                  OFFSET -3.10165 -0.590103 1.0647
                  CHANNELS 3 Zrotation Xrotation Yrotation
                  End Site
                  {
                    OFFSET -2.48547 -0.328903 0.83742
                  }
                }
              }
              JOINT rRing1
              {
                OFFSET -8.82822 0.546677 1.51678
                CHANNELS 3 Zrotation Xrotation Yrotation
                JOINT rRing2
                {
                  OFFSET -2.60934 -0.819778 -0.0198488
                  CHANNELS 3 Zrotation Xrotation Yrotation
                  End Site
                  {
                    OFFSET -2.33842 -0.294052 0.168128
                  }
                }
              }
              JOINT rPinky1
              {
                OFFSET -8.27202 -0.0477905 -0.4584
                CHANNELS 3 Zrotation Xrotation Yrotation
                JOINT rPinky2
                {
                  OFFSET -1.82734 -0.647385 -0.700984
                  CHANNELS 3 Zrotation Xrotation Yrotation
                  End Site
                  {
                    OFFSET -1.69225 -0.51767 -0.607171
                  }
                }
              }
            }
          }
        }
      }
      JOINT lCollar
      {
        OFFSET 2.68224 19.2634 -4.8768
        CHANNELS 3 Zrotation Xrotation Yrotation
        JOINT lShldr
        {
          OFFSET 8.77824 -1.95073 1.46304
          CHANNELS 3 Zrotation Xrotation Yrotation
          JOINT lForeArm
          {
            OFFSET 28.1742 -1.7115 0.48768
            CHANNELS 3 Zrotation Xrotation Yrotation
            JOINT lHand
            {
              OFFSET 22.5879 0.773209 7.07136
              CHANNELS 3 Zrotation Xrotation Yrotation
              JOINT lThumb1
              {
                OFFSET 1.2192 -0.487915 3.41376
                CHANNELS 3 Zrotation Xrotation Yrotation
                JOINT lThumb2
                {
                  OFFSET 3.37035 -0.52449 3.41376
                  CHANNELS 3 Zrotation Xrotation Yrotation
                  End Site
                  {
                    OFFSET 1.78271 -1.18214 1.43049
                  }
                }
              }
              JOINT lIndex1
              {
                OFFSET 7.75947 0.938293 5.60832
                CHANNELS 3 Zrotation Xrotation Yrotation
                JOINT lIndex2
                {
                  OFFSET 2.54057 -0.884171 1.56538
                  CHANNELS 3 Zrotation Xrotation Yrotation
                  End Site
                  {
                    OFFSET 1.62519 -0.234802 1.16502
                  }
                }
              }
              JOINT lMid1
              {
                OFFSET 8.24714 1.18213 3.41376
                CHANNELS 3 Zrotation Xrotation Yrotation
                JOINT lMid2
                {
                  OFFSET 3.10165 -0.590103 1.0647
                  CHANNELS 3 Zrotation Xrotation Yrotation
                  End Site
                  {
                    OFFSET 2.48547 -0.328903 0.83742
                  }
                }
              }
              JOINT lRing1
              {
                OFFSET 8.82822 0.546677 1.51678
                CHANNELS 3 Zrotation Xrotation Yrotation
                JOINT lRing2
                {
                  OFFSET 2.60934 -0.819778 -0.0198488
                  CHANNELS 3 Zrotation Xrotation Yrotation
                  End Site
                  {
                    OFFSET 2.33842 -0.294052 0.168128
                  }
                }
              }
              JOINT lPinky1
              {
                OFFSET 8.27202 -0.0477905 -0.4584
                CHANNELS 3 Zrotation Xrotation Yrotation
                JOINT lPinky2
                {
                  OFFSET 1.82734 -0.647385 -0.700984
                  CHANNELS 3 Zrotation Xrotation Yrotation
                  End Site
                  {
                    OFFSET 1.69225 -0.51767 -0.607171
                  }
                }
              }
            }
          }
        }
      }
    }
  }
  JOINT rButtock
  {
    OFFSET -8.77824 4.35084 1.2192
    CHANNELS 3 Zrotation Xrotation Yrotation
    JOINT rThigh
    {
      OFFSET 0 -1.70687 -2.19456
      CHANNELS 3 Zrotation Xrotation Yrotation
      JOINT rShin
      {
        OFFSET 0 -36.8199 0.73152
        CHANNELS 3 Zrotation Xrotation Yrotation
        JOINT rFoot
        {
          OFFSET 0.73152 -45.1104 -5.12064
          CHANNELS 3 Zrotation Xrotation Yrotation
          End Site
          {
            OFFSET -1.1221 -3.69964 12.103
          }
        }
      }
    }
  }
  JOINT lButtock
  {
    OFFSET 8.77824 4.35084 1.2192
    CHANNELS 3 Zrotation Xrotation Yrotation
    JOINT lThigh
    {
      OFFSET 0 -1.70687 -2.19456
      CHANNELS 3 Zrotation Xrotation Yrotation
      JOINT lShin
      {
        OFFSET 0 -36.8199 0.73152
        CHANNELS 3 Zrotation Xrotation Yrotation
        JOINT lFoot
        {
          OFFSET -0.73152 -45.1104 -5.12064
          CHANNELS 3 Zrotation Xrotation Yrotation
          End Site
          {
            OFFSET 1.1221 -3.69964 12.103
          }
        }
      }
    }
  }
}
MOTION
Frames:	6
Frame Time:	0.00833333
33.023 76.912 -7.565 0.0 0.0 0.0 -3.13119 0.00208552 -0.0845028 -0.863227 0.0181966 -0.149331 -4.23776e-14 7.95139e-16 5.96354e-16 -1.26846e-13 9.54166e-15 1.38683e-15 -0.0 0.0 0.0 -0.0 0.0 0.0 -2.162e-14 -1.45594e-17 2.48481e-16 -4.40661e-13 -3.60297e-16 4.37326e-15 -7.60202e-12 2.2731e-12 1.46306e-13 -8.72543e-11 -2.34799e-12 8.55569e-13 -2.05767e-10 -1.63338e-13 2.17232e-12 -3.55345e-10 -2.8625e-13 3.73318e-12 -2.05762e-10 -1.63003e-13 2.16278e-12 7.73091 5.47488 0.417314 -2.05766e-10 -1.62904e-13 2.16596e-12 2.90554 0.965183 0.102902 -2.05755e-10 -1.62904e-13 2.16357e-12 10.2786 0.731801 0.0259123 -2.0577e-10 -1.63003e-13 2.16596e-12 2.22167 -0.733487 -0.20892 -2.16171e-14 -2.25186e-17 1.49089e-16 -4.45781e-13 -8.07563e-17 2.18663e-15 -7.65291e-12 -2.28006e-12 1.78111e-13 -8.72344e-11 2.22634e-12 7.98319e-13 -2.05825e-10 -1.21026e-13 2.13415e-12 -3.55444e-10 -2.09917e-13 3.71409e-12 -2.0583e-10 -1.17681e-13 2.15324e-12 -7.73091 5.47488 -0.417314 -2.05827e-10 -1.20364e-13 2.13733e-12 -2.90554 0.965183 -0.102902 -2.05833e-10 -1.20464e-13 2.14449e-12 -10.2786 0.731801 -0.0259123 -2.05824e-10 -1.20464e-13 2.14369e-12 -2.22167 -0.733487 0.20892 -2.03217e-16 0.0 -3.88251e-19 -1.91885 -1.93503 0.0146256 -0.00850018 -2.07867 -0.0697571 -0.458594 4.00011 0.132448 2.03217e-16 0.0 3.88251e-19 -2.83829 -9.32625 0.322361 -0.00902452 11.3079 -0.235076 0.527416 -1.99509 -0.0183673
26.732 74.5887 -14.7132 -166.786 -82.9145 166.476 -3.48275 5.38783 0.470427 -0.258841 -0.0607262 -0.0920593 -4.62314 3.49009 -2.02601 10.8576 -11.9417 -0.0945138 -0.0 0.0 0.0 -0.0 0.0 0.0 -5.8777e-15 -1.5672e-13 1.60736e-16 -0.824481 -7.85827 17.813 -10.332 -7.19703 12.5159 0.000313836 -0.393097 -0.0552415 -2.46479e-10 2.81345e-11 7.28144e-11 -4.26327e-10 4.84919e-11 1.26386e-10 -2.46473e-10 2.81339e-11 7.28049e-11 7.73091 5.47488 0.417314 -2.46478e-10 2.81338e-11 7.28108e-11 2.90554 0.965183 0.102902 -2.4647e-10 2.81348e-11 7.28076e-11 10.2786 0.731801 0.0259123 -2.46482e-10 2.81344e-11 7.28115e-11 2.22167 -0.733487 -0.20892 -5.87037e-15 -1.56725e-13 6.60027e-17 1.31906 -6.13591 -15.626 10.712 -7.58766 -12.7466 6.37157e-06 0.00890854 -0.00125204 -1.97231e-11 -6.8254e-11 1.94602e-11 -3.34761e-11 -1.18289e-10 3.36538e-11 -1.97263e-11 -6.82513e-11 1.94794e-11 -7.73091 5.47488 -0.417314 -1.97239e-11 -6.8253e-11 1.94655e-11 -2.90554 0.965183 -0.102902 -1.97313e-11 -6.82534e-11 1.9469e-11 -10.2786 0.731801 -0.0259123 -1.97216e-11 -6.82537e-11 1.94666e-11 -2.22167 -0.733487 0.20892 -2.03217e-16 0.0 -3.88251e-19 -2.32626 -11.2009 -1.61521 0.0477471 15.5683 0.1821 -1.115 -2.06313 -4.06026 2.03217e-16 0.0 3.88251e-19 -0.169524 -16.7245 3.77686 0.0223898 26.1719 -0.454123 0.495056 -7.2175 -0.110314
26.7214 74.5963 -14.7226 -166.89 -82.8453 166.528 -3.97134 11.0807 1.07297 0.382107 -0.146921 -0.031481 -9.24731 7.16741 -4.18933 22.302 -24.5633 -0.198033 -0.0 0.0 0.0 -0.0 0.0 0.0 1.13878e-14 -3.29989e-13 5.77718e-16 3.36603 -13.6059 37.5143 -17.8676 -13.6499 26.3393 -0.000179356 -0.809849 -0.113816 -3.07631e-10 3.52027e-11 1.21448e-10 -5.32625e-10 6.05635e-11 2.11063e-10 -3.07623e-10 3.52011e-11 1.21439e-10 7.73091 5.47488 0.417314 -3.0763e-10 3.52007e-11 1.21448e-10 2.90554 0.965183 0.102902 -3.07626e-10 3.52029e-11 1.21444e-10 10.2786 0.731801 0.0259123 -3.07633e-10 3.52022e-11 1.21449e-10 2.22167 -0.733487 -0.20892 1.14048e-14 -3.29992e-13 4.9075e-16 -0.786677 -11.0903 -32.6397 18.393 -14.3416 -26.8884 1.78662e-05 0.0117904 -0.00165709 2.03792e-10 -1.4873e-10 6.34699e-11 3.53187e-10 -2.5765e-10 1.0966e-10 2.03792e-10 -1.48728e-10 6.34895e-11 -7.73091 5.47488 -0.417314 2.03792e-10 -1.48728e-10 6.34777e-11 -2.90554 0.965183 -0.102902 2.03784e-10 -1.48729e-10 6.34774e-11 -10.2786 0.731801 -0.0259123 2.03794e-10 -1.4873e-10 6.34733e-11 -2.22167 -0.733487 0.20892 -2.03217e-16 0.0 -3.88251e-19 -3.36773 -20.9708 -3.50624 -0.0905014 34.227 0.525653 -2.77936 -8.39144 -8.58112 2.03217e-16 0.0 3.88251e-19 3.7117 -24.4156 7.80877 0.225671 41.8877 -0.798936 0.442947 -12.7387 -0.208491
26.7156 74.6312 -14.7067 -167.771 -82.8198 167.388 -4.50938 16.1536 1.63877 0.950403 -0.218572 0.0224841 -13.1199 10.4175 -6.16884 32.4313 -35.8246 -0.342133 -0.0 0.0 0.0 -0.0 0.0 0.0 2.56068e-14 -4.7013e-13 -1.47533e-17 10.1698 -14.6184 55.537 -21.9599 -17.4353 39.3754 -0.00133291 -1.17929 -0.165756 -3.27904e-10 8.47301e-11 2.14099e-10 -5.68293e-10 1.46048e-10 3.71693e-10 -3.27895e-10 8.47277e-11 2.14089e-10 7.73091 5.47488 0.417314 -3.27903e-10 8.47271e-11 2.141e-10 2.90554 0.965183 0.102902 -3.27902e-10 8.47302e-11 2.14096e-10 10.2786 0.731801 0.0259123 -3.27906e-10 8.47293e-11 2.14103e-10 2.22167 -0.733487 -0.20892 2.56231e-14 -4.7013e-13 -1.00169e-16 -5.03515 -12.9978 -48.2202 22.4295 -18.2109 -40.2907 2.02829e-05 0.0267256 -0.00375611 3.52481e-10 -2.0452e-10 5.41122e-11 6.10461e-10 -3.54447e-10 9.35331e-11 3.52482e-10 -2.04518e-10 5.41318e-11 -7.73091 5.47488 -0.417314 3.52481e-10 -2.04518e-10 5.41217e-11 -2.90554 0.965183 -0.102902 3.52473e-10 -2.04519e-10 5.41181e-11 -10.2786 0.731801 -0.0259123 3.52483e-10 -2.0452e-10 5.41124e-11 -2.22167 -0.733487 0.20892 -2.03217e-16 0.0 -3.88251e-19 -4.92632 -29.6318 -5.50416 -0.516147 50.8577 1.05458 -5.12757 -13.8651 -12.8166 2.03217e-16 0.0 3.88251e-19 8.23941 -31.0663 11.9482 0.701378 55.8945 -1.35845 0.377782 -17.6621 -0.306032
26.7237 74.6661 -14.6943 -168.166 -82.8345 167.826 -4.93878 19.6824 2.05648 1.33671 -0.253867 0.0599157 -15.6446 12.6493 -7.60247 39.3478 -43.6852 -0.551516 -0.0 0.0 0.0 -0.0 0.0 0.0 3.22094e-14 -5.27451e-13 -3.13086e-15 15.4704 -12.4914 67.5937 -23.705 -18.5561 48.6895 -0.00251017 -1.43044 -0.201077 -2.45982e-10 2.40405e-10 4.16789e-10 -4.27389e-10 4.15066e-10 7.22204e-10 -2.45971e-10 2.40403e-10 4.1678e-10 7.73091 5.47488 0.417314 -2.4598e-10 2.40402e-10 4.16793e-10 2.90554 0.965183 0.102902 -2.45981e-10 2.40406e-10 4.16788e-10 10.2786 0.731801 0.0259123 -2.45984e-10 2.40405e-10 4.16796e-10 2.22167 -0.733487 -0.20892 3.2199e-14 -5.27449e-13 -3.23025e-15 -8.7282 -12.5015 -58.9962 24.0842 -19.2551 -49.8767 6.32298e-06 0.0717944 -0.0100901 3.14103e-10 -1.98595e-10 -8.86643e-11 5.44261e-10 -3.44836e-10 -1.52926e-10 3.14103e-10 -1.98595e-10 -8.86452e-11 -7.73091 5.47488 -0.417314 3.14103e-10 -1.98594e-10 -8.86548e-11 -2.90554 0.965183 -0.102902 3.14095e-10 -1.98595e-10 -8.86603e-11 -10.2786 0.731801 -0.0259123 3.14105e-10 -1.98596e-10 -8.86675e-11 -2.22167 -0.733487 0.20892 -2.03217e-16 0.0 -3.88251e-19 -6.45729 -35.6145 -7.19016 -1.21391 62.4216 1.78529 -7.26206 -17.5284 -15.938 2.03217e-16 0.0 3.88251e-19 12.0918 -35.524 15.2576 1.4347 65.6325 -2.12798 0.315582 -21.0912 -0.391928
26.7254 74.6977 -14.7015 -167.981 -82.8154 167.647 -5.09941 21.0546 2.22415 1.46537 -0.229535 0.0739761 -16.5167 13.4785 -8.21672 41.799 -46.7824 -0.831442 -0.0 0.0 0.0 -0.0 0.0 0.0 2.61116e-14 -4.40204e-13 -9.92564e-15 17.48 -11.0283 72.0439 -24.2267 -18.6083 52.3228 -0.00298792 -1.51214 -0.21257 7.72631e-12 6.01492e-10 8.34205e-10 1.02155e-11 1.03918e-09 1.44328e-09 7.73608e-12 6.01489e-10 8.34195e-10 7.73091 5.47488 0.417314 7.72755e-12 6.01489e-10 8.34208e-10 2.90554 0.965183 0.102902 7.72682e-12 6.01492e-10 8.34204e-10 10.2786 0.731801 0.0259123 7.72392e-12 6.01493e-10 8.34213e-10 2.22167 -0.733487 -0.20892 2.60268e-14 -4.40201e-13 -1.00689e-14 -10.2323 -11.8748 -63.1133 24.5759 -19.2533 -53.6289 1.27233e-05 0.192293 -0.0270249 -5.51296e-11 -9.75454e-11 -4.74138e-10 -9.40272e-11 -1.71392e-10 -8.18343e-10 -5.5135e-11 -9.7549e-11 -4.7412e-10 -7.73091 5.47488 -0.417314 -5.51294e-11 -9.75459e-11 -4.74131e-10 -2.90554 0.965183 -0.102902 -5.51386e-11 -9.75458e-11 -4.74136e-10 -10.2786 0.731801 -0.0259123 -5.51263e-11 -9.75462e-11 -4.74145e-10 -2.22167 -0.733487 0.20892 -2.03217e-16 0.0 -3.88251e-19 -7.17624 -37.9226 -7.955 -1.69015 66.898 2.26537 -8.19969 -18.9026 -17.1922 2.03217e-16 0.0 3.88251e-19 13.7636 -37.212 16.6352 1.92181 69.4017 -2.62403 0.271803 -22.43 -0.461501
